<svg width="240" height="56" viewBox="0 0 240 56" fill="none" xmlns="http://www.w3.org/2000/svg">
<g clip-path="url(#clip0_6_883)">
<path d="M43.4851 22.4152C44.3769 23.2944 45.0856 24.3416 45.5702 25.4963C46.0548 26.651 46.3058 27.8904 46.3085 29.1427C46.3113 30.395 46.0658 31.6354 45.5862 32.7922C45.1067 33.9491 44.4026 34.9994 43.5147 35.8825C42.4159 36.978 41.112 37.8461 39.6775 38.4373C38.243 39.0284 36.706 39.331 35.1544 39.3277C33.4304 39.3315 31.7265 38.9577 30.1625 38.2325C28.5984 37.5073 27.2122 36.4482 26.1013 35.1299C30.7306 38.9539 37.6248 38.7138 41.9709 34.4119C42.6663 33.7263 43.2185 32.9092 43.5954 32.0083C43.9723 31.1074 44.1664 30.1405 44.1664 29.1639C44.1664 28.1873 43.9723 27.2205 43.5954 26.3195C43.2185 25.4186 42.6663 24.6016 41.9709 23.9159C39.0427 21.0172 34.2952 21.0172 31.367 23.9159C31.0688 24.2097 30.832 24.5599 30.6704 24.9461C30.5088 25.3323 30.4255 25.7467 30.4255 26.1654C30.4255 26.584 30.5088 26.9985 30.6704 27.3846C30.832 27.7708 31.0688 28.121 31.367 28.4148C31.9726 29.0119 32.7888 29.3466 33.6393 29.3466C34.4897 29.3466 35.3059 29.0119 35.9115 28.4148C36.1134 28.2158 36.3855 28.1042 36.669 28.1042C36.9524 28.1042 37.2245 28.2158 37.4264 28.4148C37.5256 28.5128 37.6043 28.6294 37.6581 28.758C37.7118 28.8866 37.7395 29.0245 37.7395 29.1639C37.7395 29.3033 37.7118 29.4413 37.6581 29.5699C37.6043 29.6985 37.5256 29.8151 37.4264 29.913C36.4171 30.9079 35.0568 31.4657 33.6396 31.4657C32.2224 31.4657 30.8621 30.9079 29.8528 29.913C29.3562 29.4232 28.9618 28.8397 28.6927 28.1962C28.4235 27.5527 28.2849 26.8622 28.2849 26.1647C28.2849 25.4672 28.4235 24.7767 28.6927 24.1332C28.9618 23.4898 29.3562 22.9062 29.8528 22.4165C33.6165 18.6887 39.7202 18.6887 43.4851 22.4165V22.4152ZM35.1544 16C36.8784 15.9963 38.5822 16.3702 40.1462 17.0955C41.7101 17.8209 43.0962 18.88 44.2069 20.1984C39.577 16.3744 32.6821 16.6152 28.3386 20.9145V20.9157C27.6431 21.6014 27.0908 22.4185 26.7138 23.3195C26.3369 24.2205 26.1427 25.1874 26.1427 26.1641C26.1427 27.1408 26.3369 28.1077 26.7138 29.0087C27.0908 29.9097 27.6431 30.7268 28.3386 31.4124C31.2655 34.3118 36.0124 34.3118 38.9406 31.4124C39.2387 31.1186 39.4754 30.7685 39.6369 30.3823C39.7985 29.9962 39.8817 29.5818 39.8817 29.1633C39.8817 28.7447 39.7985 28.3303 39.6369 27.9442C39.4754 27.5581 39.2387 27.208 38.9406 26.9141C38.335 26.3171 37.5187 25.9823 36.6683 25.9823C35.8179 25.9823 35.0016 26.3171 34.396 26.9141C34.1942 27.113 33.9223 27.2244 33.6389 27.2244C33.3556 27.2244 33.0837 27.113 32.8818 26.9141C32.7825 26.8162 32.7037 26.6995 32.6499 26.5709C32.5961 26.4422 32.5684 26.3042 32.5684 26.1647C32.5684 26.0253 32.5961 25.8872 32.6499 25.7586C32.7037 25.6299 32.7825 25.5132 32.8818 25.4153C33.8911 24.4204 35.2514 23.8627 36.6686 23.8627C38.0859 23.8627 39.4462 24.4204 40.4554 25.4153C40.952 25.9051 41.3464 26.4887 41.6155 27.1321C41.8847 27.7756 42.0233 28.4661 42.0233 29.1636C42.0233 29.8611 41.8847 30.5516 41.6155 31.1951C41.3464 31.8385 40.952 32.4221 40.4554 32.9119C36.6911 36.6396 30.5874 36.6396 26.8224 32.9119C25.9295 32.0314 25.2203 30.9824 24.7358 29.8258C24.2513 28.6691 24.0012 27.4278 24 26.1738C23.9988 24.9198 24.2465 23.678 24.7288 22.5205C25.2111 21.3629 25.9184 20.3126 26.8096 19.4304C29.0273 17.2271 32.0283 15.9935 35.1544 16Z" fill="url(#paint0_radial_6_883)"/>
<path d="M62.0234 33.653C62.1661 33.6539 62.3077 33.6264 62.4397 33.5721C62.5718 33.5179 62.6917 33.438 62.7927 33.337C62.8936 33.2361 62.9735 33.1161 63.0278 32.9841C63.082 32.852 63.1095 32.7105 63.1086 32.5678C63.1095 32.425 63.082 32.2835 63.0278 32.1514C62.9735 32.0194 62.8936 31.8994 62.7927 31.7985C62.6917 31.6975 62.5718 31.6176 62.4397 31.5634C62.3077 31.5092 62.1661 31.4817 62.0234 31.4825H57.6054V23.9025C57.6054 23.2353 57.0788 22.7081 56.4109 22.7081C56.2538 22.707 56.0981 22.7371 55.9527 22.7968C55.8074 22.8564 55.6754 22.9444 55.5643 23.0555C55.4533 23.1667 55.3655 23.2988 55.306 23.4442C55.2465 23.5896 55.2165 23.7454 55.2178 23.9025V32.4592C55.2178 33.1264 55.7444 33.6524 56.4116 33.6524H62.024L62.0234 33.653ZM68.007 25.251C69.2939 25.251 70.2244 25.592 70.8132 26.1809C71.4329 26.8018 71.7123 27.7156 71.7123 28.833V32.614C71.7123 33.2497 71.1998 33.7461 70.5647 33.7461C69.8827 33.7461 69.4326 33.2651 69.4326 32.77V32.7533C68.8592 33.3891 68.0693 33.8078 66.9218 33.8078C65.3562 33.8078 64.0699 32.9087 64.0699 31.2655V31.2346C64.0699 29.4212 65.4493 28.5838 67.4182 28.5838C68.11 28.5778 68.7975 28.6935 69.4493 28.9254V28.7855C69.4493 27.8087 68.8431 27.2661 67.666 27.2661C67.1148 27.2599 66.5658 27.3381 66.0382 27.4979C65.9293 27.539 65.8141 27.5603 65.6978 27.5609C65.1545 27.5609 64.7211 27.1422 64.7211 26.6002C64.7211 26.1924 64.9741 25.8277 65.3562 25.6851C66.1011 25.4058 66.9064 25.251 68.007 25.251ZM67.9749 29.9946C66.9686 29.9946 66.3483 30.3979 66.3483 31.1415V31.1717C66.3483 31.8074 66.8755 32.1799 67.6358 32.1799H67.6352L67.7604 32.1773C68.75 32.1349 69.4236 31.5898 69.4763 30.8205L69.4795 30.7235V30.3042C69.0762 30.1186 68.5496 29.9946 67.9755 29.9946H67.9749ZM74.9211 33.7461C75.5723 33.7461 76.0982 33.2196 76.0982 32.5678V30.3664C76.0982 28.6923 76.766 27.7786 77.9592 27.4992C78.4395 27.3901 78.8421 27.0176 78.8421 26.3986C78.8421 25.7307 78.4234 25.251 77.6959 25.251C76.9972 25.251 76.4398 25.9953 76.0995 26.8018V26.4294C76.0995 26.1169 75.9753 25.8171 75.7543 25.5962C75.5334 25.3752 75.2336 25.251 74.9211 25.251C74.6086 25.251 74.3089 25.3752 74.0879 25.5962C73.8669 25.8171 73.7428 26.1169 73.7428 26.4294V32.5684C73.7428 33.2189 74.2693 33.7455 74.9198 33.7455L74.9211 33.7461ZM83.2756 25.251C84.5631 25.251 85.4929 25.592 86.0818 26.1809C86.7015 26.8018 86.9808 27.7156 86.9808 28.833V32.614C86.9808 33.2497 86.469 33.7461 85.8339 33.7461C85.1513 33.7461 84.7018 33.2651 84.7018 32.77V32.7533C84.1284 33.3891 83.3385 33.8084 82.1903 33.8084C80.6247 33.8078 79.3392 32.9087 79.3392 31.2655V31.2346C79.3392 29.4212 80.7185 28.5838 82.6874 28.5838C83.379 28.5779 84.0663 28.6935 84.7179 28.9254V28.7855C84.7179 27.8087 84.1123 27.2661 82.9352 27.2661C82.384 27.2599 81.835 27.3381 81.3074 27.4979C81.1985 27.539 81.0833 27.5603 80.967 27.5609C80.4231 27.5609 79.9897 27.1422 79.9897 26.6002C79.9897 26.1924 80.2433 25.8277 80.6254 25.6851C81.3703 25.4058 82.1749 25.251 83.2756 25.251ZM83.2448 29.9946C82.2378 29.9946 81.6175 30.3979 81.6175 31.1415V31.1717C81.6175 31.8074 82.1447 32.1799 82.9038 32.1799C84.0044 32.1799 84.748 31.5763 84.748 30.7235V30.3042C84.3454 30.1186 83.8188 29.9946 83.2448 29.9946ZM92.3441 33.8238C92.9798 33.8238 93.4146 33.4045 93.6772 32.8009L96.2195 26.9251C96.2658 26.8166 96.3441 26.5687 96.3441 26.3671C96.3443 26.2191 96.315 26.0725 96.2579 25.9359C96.2009 25.7993 96.1172 25.6755 96.0117 25.5716C95.9063 25.4677 95.7812 25.3858 95.6438 25.3308C95.5064 25.2758 95.3593 25.2486 95.2113 25.251C94.5917 25.251 94.2661 25.6543 94.112 26.0569L92.2979 30.9091L90.5159 26.0878C90.3444 25.6074 90.0034 25.251 89.3677 25.251C88.7326 25.251 88.2208 25.7936 88.2208 26.3517C88.2208 26.5687 88.2831 26.7704 88.3454 26.9258L90.8877 32.8009C91.151 33.4205 91.5851 33.8238 92.2202 33.8238H92.3448H92.3441ZM101.32 25.1887C104.094 25.1887 105.319 27.4684 105.319 29.1881C105.319 29.8707 104.839 30.3202 104.218 30.3202H99.553C99.7854 31.3894 100.529 31.9481 101.583 31.9481C102.188 31.953 102.777 31.7565 103.258 31.3894C103.421 31.2616 103.624 31.1956 103.832 31.2032C104.358 31.2032 104.745 31.6077 104.745 32.1337C104.745 32.4438 104.607 32.6769 104.435 32.831C103.707 33.452 102.761 33.8392 101.552 33.8392C99.0566 33.8392 97.2123 32.0874 97.2123 29.5451V29.5149C97.2123 27.1422 98.9012 25.1887 101.32 25.1887ZM101.32 27.0799C100.343 27.0799 99.7077 27.7773 99.5215 28.8477H103.071C102.932 27.7933 102.312 27.0799 101.32 27.0799ZM108.404 33.7461C109.056 33.7461 109.582 33.2196 109.582 32.5678V23.4209C109.582 23.1085 109.457 22.809 109.237 22.5881C109.016 22.3672 108.716 22.2432 108.404 22.2432C108.091 22.2432 107.792 22.3672 107.571 22.5881C107.35 22.809 107.226 23.1085 107.226 23.4209V32.5678C107.226 33.2189 107.753 33.7448 108.403 33.7448L108.404 33.7468V33.7461ZM117.876 33.7461C118.527 33.7461 119.053 33.2196 119.053 32.5678V26.7543L123.828 33.0173C124.153 33.4366 124.495 33.7147 125.067 33.7147H125.146C125.812 33.7147 126.339 33.1881 126.339 32.5215V23.8877C126.339 23.5752 126.215 23.2755 125.994 23.0545C125.773 22.8335 125.473 22.7094 125.161 22.7094C124.848 22.7094 124.549 22.8335 124.328 23.0545C124.107 23.2755 123.983 23.5752 123.983 23.8877V29.4828L119.378 23.4369C119.054 23.0189 118.712 22.7396 118.139 22.7396H117.891C117.734 22.7384 117.578 22.7684 117.433 22.828C117.287 22.8876 117.155 22.9754 117.044 23.0865C116.933 23.1976 116.845 23.3297 116.786 23.4751C116.726 23.6204 116.696 23.7762 116.697 23.9333V32.5671C116.697 33.2183 117.224 33.7461 117.875 33.7461H117.876H117.876ZM132.803 25.1887C135.376 25.1887 137.282 27.0959 137.282 29.4828V29.5137C137.282 31.9018 135.36 33.8386 132.772 33.8386C130.199 33.8386 128.292 31.9314 128.292 29.5451V29.5149C128.292 27.1268 130.214 25.1887 132.803 25.1887ZM132.772 27.2199C131.423 27.2199 130.617 28.2582 130.617 29.4828V29.5137C130.617 30.7383 131.5 31.8081 132.803 31.8081C134.151 31.8081 134.957 30.7697 134.957 29.5451V29.5137C134.957 28.2904 134.074 27.2199 132.772 27.2199ZM142.274 33.8238C142.91 33.8238 143.343 33.4045 143.607 32.8009L146.149 26.9251C146.195 26.8166 146.274 26.5687 146.274 26.3671C146.275 26.2191 146.245 26.0725 146.188 25.9359C146.131 25.7993 146.047 25.6755 145.942 25.5716C145.837 25.4677 145.711 25.3858 145.574 25.3308C145.437 25.2758 145.29 25.2486 145.142 25.251C144.521 25.251 144.196 25.6543 144.042 26.0569L142.228 30.9091L140.444 26.0878C140.275 25.6074 139.933 25.251 139.297 25.251C138.662 25.251 138.15 25.7936 138.15 26.3517C138.15 26.5687 138.213 26.7704 138.275 26.9258L140.817 32.8009C141.081 33.4205 141.515 33.8238 142.15 33.8238H142.274ZM151.11 25.251C152.397 25.251 153.327 25.592 153.915 26.1809C154.536 26.8018 154.814 27.7156 154.814 28.833V32.614C154.814 33.2497 154.303 33.7461 153.668 33.7461C152.986 33.7461 152.537 33.2651 152.537 32.77V32.7533C151.963 33.3891 151.171 33.8078 150.026 33.8078C148.459 33.8078 147.172 32.9087 147.172 31.2655V31.2346C147.172 29.4212 148.552 28.5838 150.521 28.5838C151.213 28.5779 151.9 28.6935 152.551 28.9254V28.7855C152.551 27.8087 151.947 27.2661 150.769 27.2661C150.218 27.2599 149.669 27.3381 149.141 27.4979C149.032 27.539 148.917 27.5603 148.801 27.5609C148.258 27.5609 147.823 27.1422 147.823 26.6002C147.823 26.1918 148.077 25.827 148.459 25.6851C149.203 25.4058 150.01 25.251 151.11 25.251ZM151.079 29.9946C150.071 29.9946 149.451 30.3979 149.451 31.1415V31.1717C149.451 31.8074 149.978 32.1799 150.738 32.1799C151.839 32.1799 152.583 31.5763 152.583 30.7235V30.3042C152.18 30.1186 151.652 29.9946 151.079 29.9946Z" fill="#475569"/>
</g>
<defs>
<radialGradient id="paint0_radial_6_883" cx="0" cy="0" r="1" gradientUnits="userSpaceOnUse" gradientTransform="translate(22.2992 16.705) rotate(32.7354) scale(22.3048 22.9143)">
<stop stop-color="#00FFC4"/>
<stop offset="1" stop-color="#00E1FF"/>
</radialGradient>
<clipPath id="clip0_6_883">
<rect width="131" height="23.7598" fill="white" transform="translate(24 16)"/>
</clipPath>
</defs>
</svg>
